<svg width="87" height="32" viewBox="0 0 87 32" fill="none" xmlns="http://www.w3.org/2000/svg">
<path d="M2.33911 24.1667H25.6725V26.5H2.33911V24.1667ZM2.33911 7.83334L8.17244 11.3333L14.0058 4.33334L19.8391 11.3333L25.6725 7.83334V21.8333H2.33911V7.83334Z" fill="#FF7623"/>
<path d="M40.0568 7.54545L44.5994 21.2841H44.7784L49.3125 7.54545H52.7898L46.6364 25H42.733L36.5881 7.54545H40.0568ZM54.5327 25.1875C54.0156 25.1875 53.5724 25.0057 53.2031 24.642C52.8338 24.2784 52.652 23.8352 52.6577 23.3125C52.652 22.8011 52.8338 22.3636 53.2031 22C53.5724 21.6364 54.0156 21.4545 54.5327 21.4545C55.0327 21.4545 55.4673 21.6364 55.8366 22C56.2116 22.3636 56.402 22.8011 56.4077 23.3125C56.402 23.6591 56.3111 23.9744 56.1349 24.2585C55.9645 24.5426 55.7372 24.7699 55.4531 24.9403C55.1747 25.1051 54.8679 25.1875 54.5327 25.1875ZM62.8913 7.54545V25H59.7294V7.54545H62.8913ZM68.0795 25.1875C67.5625 25.1875 67.1193 25.0057 66.75 24.642C66.3807 24.2784 66.1989 23.8352 66.2045 23.3125C66.1989 22.8011 66.3807 22.3636 66.75 22C67.1193 21.6364 67.5625 21.4545 68.0795 21.4545C68.5795 21.4545 69.0142 21.6364 69.3835 22C69.7585 22.3636 69.9489 22.8011 69.9545 23.3125C69.9489 23.6591 69.858 23.9744 69.6818 24.2585C69.5114 24.5426 69.2841 24.7699 69 24.9403C68.7216 25.1051 68.4148 25.1875 68.0795 25.1875ZM73.2763 25V7.54545H79.8217C81.1626 7.54545 82.2876 7.79545 83.1967 8.29545C84.1115 8.79545 84.8018 9.48295 85.2678 10.358C85.7393 11.2273 85.9751 12.2159 85.9751 13.3239C85.9751 14.4432 85.7393 15.4375 85.2678 16.3068C84.7962 17.1761 84.1001 17.8608 83.1797 18.3608C82.2592 18.8551 81.1257 19.1023 79.7791 19.1023H75.4411V16.5028H79.353C80.1371 16.5028 80.7791 16.3665 81.2791 16.0938C81.7791 15.821 82.1484 15.446 82.3871 14.9688C82.6314 14.4915 82.7536 13.9432 82.7536 13.3239C82.7536 12.7045 82.6314 12.1591 82.3871 11.6875C82.1484 11.2159 81.7763 10.8494 81.2706 10.5881C80.7706 10.321 80.1257 10.1875 79.3359 10.1875H76.4382V25H73.2763Z" fill="#111827"/>
</svg>
